<svg width="100" height="65" viewBox="0 0 100 65" fill="none" xmlns="http://www.w3.org/2000/svg">
<path d="M93.5 44.6722V46.1722H95H97.5C97.862 46.1722 98.1485 46.2938 98.3199 46.433C98.4896 46.5708 98.5 46.6761 98.5 46.7028V50.7639C98.5 50.7905 98.4896 50.8959 98.3199 51.0336C98.1485 51.1729 97.862 51.2944 97.5 51.2944H90H88.5V52.7944C88.5 58.4158 82.7594 63.4778 75 63.4778C67.2406 63.4778 61.5 58.4158 61.5 52.7944V51.2944H60H40H38.5V52.7944C38.5 58.4158 32.7594 63.4778 25 63.4778C17.2406 63.4778 11.5 58.4158 11.5 52.7944V38.05H33.75C34.9594 38.05 36.5 37.198 36.5 35.5347V33.5042C36.5 31.8409 34.9594 30.9889 33.75 30.9889H1.5V29.9278H38.75C39.9594 29.9278 41.5 29.0758 41.5 27.4125V25.3819C41.5 23.7187 39.9594 22.8667 38.75 22.8667H6.5V21.8056H43.75C44.9594 21.8056 46.5 20.9536 46.5 19.2903V17.2597C46.5 15.5964 44.9594 14.7444 43.75 14.7444H1.5V13.6833H10H11.5V12.1833V6.09167C11.5 3.83344 13.8812 1.5 17.5 1.5H57.5C61.1188 1.5 63.5 3.83344 63.5 6.09167V12.1833V13.6833H65H71.8906C73.5628 13.6833 75.1269 14.2315 76.2418 15.1371L91.8512 27.8154C92.959 28.7152 93.5 29.8566 93.5 30.9533V44.6722ZM1.24422 30.9885C1.24423 30.9884 1.24508 30.9885 1.24671 30.9888L1.24422 30.9885ZM1.24422 29.9282C1.24421 29.9281 1.24503 29.928 1.24672 29.9279L1.24422 29.9282ZM6.24422 22.8662C6.24422 22.8662 6.24506 22.8662 6.24671 22.8666L6.24422 22.8662ZM6.24422 21.806C6.24424 21.8059 6.24506 21.8058 6.24671 21.8056L6.24422 21.806ZM1.24422 14.744C1.24424 14.744 1.24508 14.744 1.24672 14.7444L1.24422 14.744ZM1.24422 13.6838C1.2442 13.6837 1.24502 13.6835 1.24672 13.6834L1.24422 13.6838ZM87.5 33.9889H89V32.4889V30.9533V30.2392L88.4457 29.7889L72.8363 17.1107L72.423 16.775H71.8906H65H63.5V18.275V32.4889V33.9889H65H87.5ZM16 52.7944C16 57.2624 20.3375 60.3861 25 60.3861C29.6625 60.3861 34 57.2624 34 52.7944C34 48.3265 29.6625 45.2028 25 45.2028C20.3375 45.2028 16 48.3265 16 52.7944ZM66 52.7944C66 57.2624 70.3375 60.3861 75 60.3861C79.6625 60.3861 84 57.2624 84 52.7944C84 48.3265 79.6625 45.2028 75 45.2028C70.3375 45.2028 66 48.3265 66 52.7944Z" stroke="#F07807" stroke-width="3"/>
</svg>
