<svg width="100" height="65" viewBox="0 0 100 65" fill="none" xmlns="http://www.w3.org/2000/svg">
<path d="M81.3637 24.1864L81.8125 24.7071H82.5H85C92.563 24.7071 98.5 30.3728 98.5 37.1314V48.735C98.5 49.0856 98.1599 49.5557 97.5 49.5557H90H88.5V51.0557C88.5 57.8144 82.563 63.48 75 63.48C67.437 63.48 61.5 57.8144 61.5 51.0557V49.5557H60H40H38.5V51.0557C38.5 57.8144 32.563 63.48 25 63.48C17.437 63.48 11.5 57.8144 11.5 51.0557V49.5557H10H2.5C1.8401 49.5557 1.5 49.0856 1.5 48.735V32.49C1.5 28.9573 4.12182 25.8901 7.85074 24.9934L8.58667 24.8164L8.88152 24.1192L16.3653 6.42444C17.6288 3.49743 20.7312 1.5 24.2703 1.5H57.6936C57.6936 1.5 57.6937 1.5 57.6937 1.5C58.9858 1.50017 60.2579 1.7702 61.4147 2.2863C62.5713 2.80229 63.5785 3.5488 64.3668 4.46319C64.3669 4.46326 64.367 4.46334 64.367 4.46341L81.3637 24.1864ZM36.25 24.7071H37.75V23.2071V9.28286V7.78286H36.25H24.2703H23.2833L22.8928 8.68927L16.8928 22.6136L15.9906 24.7071H18.2703H36.25ZM42.25 23.2071V24.7071H43.75H69.6937H72.9666L70.83 22.2279L58.83 8.30362L58.3812 7.78286H57.6937H43.75H42.25V9.28286V23.2071ZM16 51.0557C16 55.8266 20.1427 59.5179 25 59.5179C29.8573 59.5179 34 55.8266 34 51.0557C34 46.2848 29.8573 42.5936 25 42.5936C20.1427 42.5936 16 46.2848 16 51.0557ZM66 51.0557C66 55.8266 70.1427 59.5179 75 59.5179C79.8573 59.5179 84 55.8266 84 51.0557C84 46.2848 79.8573 42.5936 75 42.5936C70.1427 42.5936 66 46.2848 66 51.0557Z" stroke="#F07807" stroke-width="3"/>
</svg>
