<svg width="100" height="65" viewBox="0 0 100 65" fill="none" xmlns="http://www.w3.org/2000/svg">
<path d="M23.5 18.5657C23.5 22.7542 19.7943 26.3486 15 26.3486C10.2057 26.3486 6.5 22.7542 6.5 18.5657C6.5 14.3772 10.2057 10.7829 15 10.7829C19.7943 10.7829 23.5 14.3772 23.5 18.5657ZM93.5 18.5657C93.5 22.7542 89.7943 26.3486 85 26.3486C80.2057 26.3486 76.5 22.7542 76.5 18.5657C76.5 14.3772 80.2057 10.7829 85 10.7829C89.7943 10.7829 93.5 14.3772 93.5 18.5657ZM85.9507 49.5557C84.7177 43.5039 80.9455 38.3675 75.7266 35.0458C76.978 34.3764 78.4347 33.99 80 33.99H90C94.7943 33.99 98.5 37.5844 98.5 41.7729V46.4143C98.5 48.05 97.0443 49.5557 95 49.5557H85.9507ZM66 16.245C66 24.2917 58.9505 30.99 50 30.99C41.0495 30.99 34 24.2917 34 16.245C34 8.19833 41.0495 1.5 50 1.5C58.9505 1.5 66 8.19833 66 16.245ZM50 40.9521C53.9563 40.9521 57.6706 40.0817 61.0183 38.6314H62C71.2161 38.6314 78.5 45.5473 78.5 53.8406V58.0179C78.5 60.93 75.9193 63.48 72.5 63.48H27.5C24.0807 63.48 21.5 60.93 21.5 58.0179V53.8406C21.5 45.5473 28.7839 38.6314 38 38.6314H38.983C42.342 40.0808 46.0416 40.9521 50 40.9521ZM20 33.99C21.5653 33.99 23.022 34.3764 24.2734 35.0457C19.0535 38.368 15.2807 43.5048 14.0363 49.5557H5C2.95573 49.5557 1.5 48.05 1.5 46.4143V41.7729C1.5 37.5844 5.20573 33.99 10 33.99H20Z" stroke="#F07807" stroke-width="3"/>
</svg>
